<svg id="Ebene_1" data-name="Ebene 1" xmlns="http://www.w3.org/2000/svg" viewBox="0 0 47.2 50"><rect x="12.6" y="47.64" width="22" height="2.36" style="fill:#ff4539"/><path d="M20.6,16.09l-.42-.21C14.73,13.19,12.7,6.94,12.7,3.63a1.13,1.13,0,1,1,2.26,0c0,2.26,1.42,7.57,5.79,10l.51-.2a14.89,14.89,0,0,1,6.21-1.28,14.82,14.82,0,0,1,6.18,1.22l.45.17C39.83,10.48,40,3.7,40,3.63a1.13,1.13,0,1,1,2.25,0c0,2.36-1.36,9.16-7.58,12.16l-.43.21-.44-.16-1-.36a12.79,12.79,0,0,0-5.36-1.06,12.56,12.56,0,0,0-5.37,1.11c-.36.14-.7.28-1.05.4Z" transform="translate(-3.9 -2.5)" style="fill:#ff4539"/><path d="M27.48,45.94c-.06,0-6.78-.11-8-2.65a6.69,6.69,0,0,1-.39-3,6.87,6.87,0,0,1,.26-1.65A3.3,3.3,0,0,0,19.52,37c-1-3.51-2-8.17-2.83-11.92-.49-2.25-1-4.74-1.34-5.85H6.28A5.88,5.88,0,0,0,12.15,24a1.13,1.13,0,0,1,0,2.26h0c-3.32,0-8.24-2.65-8.24-8.24V16.93H16.1c1,0,1.25.88,1.71,2.8.3,1.22.66,2.89,1.09,4.82.81,3.72,1.83,8.35,2.79,11.8a5.21,5.21,0,0,1-.13,2.87,4.53,4.53,0,0,0-.2,1.09,7.18,7.18,0,0,0,.18,2c.34.56,3.48,1.36,5.94,1.36,2,0,5.51-.74,5.93-1.38a6.79,6.79,0,0,0,.17-2,5,5,0,0,0-.19-1.09,5.3,5.3,0,0,1-.14-2.87c1-3.45,2-8.08,2.8-11.81.42-1.93.79-3.59,1.08-4.81.47-1.92.68-2.8,1.71-2.8H51.1v1.12a7.89,7.89,0,0,1-2.43,5.88,8.75,8.75,0,0,1-6.14,2.37,1.13,1.13,0,1,1,.12-2.25,6.49,6.49,0,0,0,4.47-1.76,5.41,5.41,0,0,0,1.64-3.11H39.6c-.31,1.11-.86,3.6-1.35,5.85-.82,3.75-1.85,8.41-2.83,11.92a3.3,3.3,0,0,0,.15,1.71,6.86,6.86,0,0,1,.27,1.65,6.66,6.66,0,0,1-.4,3c-1.2,2.49-7.89,2.64-8,2.64" transform="translate(-3.9 -2.5)" style="fill:#ff4539"/></svg>